<svg width="125" height="172" viewBox="0 0 125 172" fill="none" xmlns="http://www.w3.org/2000/svg">
<path d="M6.37933 50.4138H9.34484L21.6814 8.51104C23.1684 3.46164 27.8052 -0.00385317 33.069 3.21528e-06H92.3793C97.6321 0.00928896 102.253 3.47216 103.737 8.51104L116.103 50.4138H119.069C122.345 50.4138 125 53.0692 125 56.3448V59.3104C125 62.586 122.345 65.2414 119.069 65.2414L108.66 158.803C107.825 166.35 101.425 172.046 93.8324 172H31.5566C23.9644 172.046 17.564 166.35 16.729 158.803L6.37933 65.2414C3.10371 65.2414 0.448294 62.586 0.448294 59.3104V56.3448C0.448294 53.0692 3.10371 50.4138 6.37933 50.4138V50.4138Z" fill="#305BC7"/>
<path d="M98.0136 30.96L93.6543 16.1324C92.9162 13.6018 90.5965 11.8621 87.9605 11.8621H37.5467C34.9107 11.8621 32.591 13.6018 31.8529 16.1324L27.4936 30.96C26.9763 32.7323 27.3138 34.6444 28.4066 36.1325C29.4994 37.6206 31.2229 38.5149 33.0688 38.5517H92.3791C94.2355 38.5332 95.9761 37.6465 97.0825 36.1557C98.1889 34.665 98.5335 32.7422 98.0136 30.96V30.96Z" fill="#393F4A"/>
<path d="M6.37932 50.4138H119.069C122.345 50.4138 125 53.0692 125 56.3449V59.3104C125 62.586 122.345 65.2414 119.069 65.2414H6.37932C3.1037 65.2414 0.448288 62.586 0.448288 59.3104V56.3449C0.448288 53.0692 3.1037 50.4138 6.37932 50.4138Z" fill="#2843CA"/>
<path d="M77.5518 163.104H93.9214C96.9482 163.124 99.5044 160.861 99.8525 157.855L104.864 112.69C105.044 111.052 103.863 109.578 102.225 109.398C100.587 109.218 99.1133 110.4 98.9331 112.037L93.9511 157.173H77.5518C75.914 157.173 74.5862 158.5 74.5862 160.138C74.5862 161.776 75.914 163.104 77.5518 163.104Z" fill="#2843CA"/>
<path d="M103.826 97.862C105.335 97.8729 106.611 96.7499 106.792 95.2524L108.779 77.4593C108.959 75.8215 107.777 74.3477 106.139 74.1676C104.502 73.9874 103.028 75.1691 102.848 76.8069L100.831 94.6C100.748 95.3873 100.984 96.175 101.485 96.7877C101.987 97.4004 102.712 97.7872 103.5 97.862H103.826Z" fill="#2843CA"/>
<path d="M52.4633 96.9131C53.527 96.9173 54.5115 96.3515 55.0433 95.4303L60.144 86.5338C60.6706 85.6047 61.6561 85.0304 62.724 85.0304C63.792 85.0304 64.7775 85.6047 65.304 86.5338L70.4047 95.4303C70.9345 96.3521 71.9157 96.9212 72.9788 96.9233C74.042 96.9254 75.0254 96.3602 75.5588 95.4405C76.0922 94.5209 76.0945 93.3866 75.5647 92.4648L70.4344 83.5683C68.8467 80.8101 65.9065 79.1101 62.724 79.1101C59.5415 79.1101 56.6014 80.8101 55.0137 83.5683L49.8833 92.4648C49.3525 93.3842 49.3536 94.5171 49.8863 95.4355C50.4189 96.3538 51.4018 96.9173 52.4633 96.9131Z" fill="white"/>
<path d="M43.3294 130.483H52.4632C54.101 130.483 55.4287 129.155 55.4287 127.517C55.4287 125.879 54.101 124.552 52.4632 124.552H43.3294C42.2731 124.545 41.2999 123.978 40.7746 123.061C40.2492 122.145 40.2509 121.018 40.7791 120.103L45.3459 112.215C46.1649 110.79 45.6736 108.971 44.2487 108.152C42.8238 107.333 41.0048 107.825 40.1859 109.25L35.6487 117.138C34.0616 119.887 34.0593 123.273 35.6427 126.024C37.2261 128.775 40.1552 130.474 43.3294 130.483V130.483Z" fill="white"/>
<path d="M72.9848 130.483H82.1186C85.2927 130.474 88.2219 128.775 89.8053 126.024C91.3887 123.273 91.3864 119.887 89.7993 117.138L85.262 109.25C84.7323 108.328 83.7511 107.759 82.6879 107.757C81.6248 107.754 80.6413 108.32 80.1079 109.239C79.5745 110.159 79.5723 111.293 80.102 112.215L84.6689 120.103C85.1971 121.018 85.1988 122.145 84.6734 123.061C84.148 123.978 83.1749 124.545 82.1186 124.552H72.9848C71.347 124.552 70.0193 125.879 70.0193 127.517C70.0193 129.155 71.347 130.483 72.9848 130.483Z" fill="white"/>
</svg>
