<svg width="125" height="172" viewBox="0 0 125 172" fill="none" xmlns="http://www.w3.org/2000/svg">
<path d="M118.621 50.4138H115.655L103.319 8.51104C101.832 3.46164 97.1948 -0.00385317 91.931 3.21528e-06L32.6207 3.21528e-06C27.3679 0.00928896 22.7467 3.47216 21.2628 8.51104L8.89655 50.4138H5.93103C2.65541 50.4138 0 53.0692 0 56.3448L0 59.3104C0 62.586 2.65541 65.2414 5.93103 65.2414L16.34 158.803C17.175 166.35 23.5754 172.046 31.1676 172H93.4434C101.036 172.046 107.436 166.35 108.271 158.803L118.621 65.2414C121.896 65.2414 124.552 62.586 124.552 59.3104V56.3448C124.552 53.0692 121.896 50.4138 118.621 50.4138V50.4138Z" fill="#4FBA6F"/>
<path d="M26.9864 30.96L31.3457 16.1324C32.0838 13.6018 34.4035 11.8621 37.0395 11.8621L87.4533 11.8621C90.0893 11.8621 92.409 13.6018 93.1471 16.1324L97.5064 30.96C98.0237 32.7323 97.6862 34.6444 96.5934 36.1325C95.5006 37.6206 93.7771 38.5149 91.9312 38.5517H32.6209C30.7645 38.5332 29.0239 37.6465 27.9175 36.1557C26.8111 34.665 26.4665 32.7422 26.9864 30.96V30.96Z" fill="#393F4A"/>
<path d="M118.621 50.4138L5.93103 50.4138C2.65541 50.4138 0 53.0692 0 56.3449L0 59.3104C0 62.586 2.65541 65.2414 5.93103 65.2414H118.621C121.896 65.2414 124.552 62.586 124.552 59.3104V56.3449C124.552 53.0692 121.896 50.4138 118.621 50.4138Z" fill="#4C8056"/>
<path d="M47.4482 163.104H31.0786C28.0518 163.124 25.4956 160.861 25.1475 157.855L20.1358 112.69C19.9557 111.052 21.1373 109.578 22.7751 109.398C24.4129 109.218 25.8867 110.4 26.0669 112.037L31.0489 157.173H47.4482C49.086 157.173 50.4138 158.5 50.4138 160.138C50.4138 161.776 49.086 163.104 47.4482 163.104Z" fill="#7ED09E"/>
<path d="M21.1737 97.862C19.6653 97.8729 18.3891 96.7499 18.2082 95.2524L16.2213 77.4593C16.0411 75.8215 17.2228 74.3477 18.8606 74.1676C20.4984 73.9874 21.9721 75.1691 22.1523 76.8069L24.1689 94.6C24.2516 95.3873 24.0161 96.175 23.5148 96.7877C23.0135 97.4004 22.288 97.7872 21.4999 97.862H21.1737Z" fill="#7ED09E"/>
<path d="M72.5367 96.9131C71.473 96.9173 70.4885 96.3515 69.9567 95.4303L64.856 86.5338C64.3294 85.6047 63.3439 85.0304 62.276 85.0304C61.208 85.0304 60.2225 85.6047 59.696 86.5338L54.5953 95.4303C54.0655 96.3521 53.0843 96.9212 52.0212 96.9233C50.958 96.9254 49.9746 96.3602 49.4412 95.4405C48.9078 94.5209 48.9055 93.3866 49.4353 92.4648L54.5656 83.5683C56.1533 80.8101 59.0935 79.1101 62.276 79.1101C65.4585 79.1101 68.3986 80.8101 69.9863 83.5683L75.1167 92.4648C75.6475 93.3842 75.6464 94.5171 75.1137 95.4355C74.5811 96.3538 73.5982 96.9173 72.5367 96.9131Z" fill="white"/>
<path d="M81.6706 130.483H72.5368C70.899 130.483 69.5713 129.155 69.5713 127.517C69.5713 125.879 70.899 124.552 72.5368 124.552H81.6706C82.7269 124.545 83.7001 123.978 84.2254 123.061C84.7508 122.145 84.7491 121.018 84.2209 120.103L79.6541 112.215C78.8351 110.79 79.3264 108.971 80.7513 108.152C82.1762 107.333 83.9952 107.825 84.8141 109.25L89.3513 117.138C90.9384 119.887 90.9407 123.273 89.3573 126.024C87.7739 128.775 84.8448 130.474 81.6706 130.483V130.483Z" fill="white"/>
<path d="M52.0152 130.483H42.8814C39.7073 130.474 36.7781 128.775 35.1947 126.024C33.6113 123.273 33.6136 119.887 35.2007 117.138L39.738 109.25C40.2677 108.328 41.2489 107.759 42.3121 107.757C43.3752 107.754 44.3587 108.32 44.8921 109.239C45.4255 110.159 45.4277 111.293 44.898 112.215L40.3311 120.103C39.8029 121.018 39.8012 122.145 40.3266 123.061C40.852 123.978 41.8251 124.545 42.8814 124.552H52.0152C53.653 124.552 54.9807 125.879 54.9807 127.517C54.9807 129.155 53.653 130.483 52.0152 130.483Z" fill="white"/>
</svg>
