<svg width="126" height="172" viewBox="0 0 126 172" fill="none" xmlns="http://www.w3.org/2000/svg">
<path d="M119.345 50.4138H116.379L104.043 8.51104C102.556 3.46164 97.9189 -0.00385317 92.6551 3.21528e-06L33.3448 3.21528e-06C28.092 0.00928896 23.4708 3.47216 21.9869 8.51104L9.62067 50.4138H6.65515C3.37954 50.4138 0.724121 53.0692 0.724121 56.3448L0.724121 59.3104C0.724121 62.586 3.37954 65.2414 6.65515 65.2414L17.0641 158.803C17.8991 166.35 24.2995 172.046 31.8917 172H94.1676C101.76 172.046 108.16 166.35 108.995 158.803L119.345 65.2414C122.62 65.2414 125.276 62.586 125.276 59.3104V56.3448C125.276 53.0692 122.62 50.4138 119.345 50.4138Z" fill="#EF8132"/>
<path d="M27.7103 30.96L32.0696 16.1324C32.8077 13.6019 35.1274 11.8621 37.7634 11.8621L88.1772 11.8621C90.8132 11.8621 93.1329 13.6019 93.871 16.1324L98.2303 30.96C98.7476 32.7323 98.4101 34.6444 97.3173 36.1325C96.2245 37.6206 94.501 38.5149 92.6551 38.5517H33.3448C31.4884 38.5332 29.7478 37.6465 28.6414 36.1558C27.5349 34.665 27.1904 32.7422 27.7103 30.96Z" fill="#393F4A"/>
<path d="M119.345 50.4138L6.65516 50.4138C3.37954 50.4138 0.724121 53.0692 0.724121 56.3449L0.724121 59.3104C0.724121 62.586 3.37954 65.2414 6.65516 65.2414H119.345C122.62 65.2414 125.276 62.586 125.276 59.3104V56.3449C125.276 53.0692 122.62 50.4138 119.345 50.4138Z" fill="#ED9F39"/>
<path d="M48.1724 163.103H31.8027C28.776 163.124 26.2197 160.861 25.8717 157.854L20.8599 112.69C20.6798 111.052 21.8614 109.578 23.4993 109.398C25.1371 109.218 26.6108 110.399 26.791 112.037L31.773 157.172H48.1724C49.8102 157.172 51.1379 158.5 51.1379 160.138C51.1379 161.776 49.8102 163.103 48.1724 163.103Z" fill="#DE652C"/>
<path d="M21.8978 97.862C20.3895 97.8729 19.1133 96.7499 18.9323 95.2524L16.9454 77.4593C16.7652 75.8215 17.9469 74.3477 19.5847 74.1676C21.2225 73.9874 22.6963 75.1691 22.8764 76.8069L24.893 94.6C24.9757 95.3873 24.7402 96.175 24.2389 96.7877C23.7376 97.4004 23.0121 97.7872 22.224 97.862H21.8978Z" fill="#DE652C"/>
<path d="M73.2608 96.9131C72.1971 96.9173 71.2126 96.3515 70.6808 95.4303L65.5801 86.5338C65.0535 85.6047 64.0681 85.0304 63.0001 85.0304C61.9321 85.0304 60.9467 85.6047 60.4201 86.5338L55.3194 95.4303C54.7897 96.3521 53.8084 96.9212 52.7453 96.9233C51.6822 96.9254 50.6987 96.3602 50.1653 95.4405C49.6319 94.5209 49.6297 93.3866 50.1594 92.4648L55.2897 83.5683C56.8775 80.8101 59.8176 79.1101 63.0001 79.1101C66.1826 79.1101 69.1227 80.8101 70.7104 83.5683L75.8408 92.4648C76.3716 93.3842 76.3705 94.5171 75.8379 95.4355C75.3052 96.3538 74.3224 96.9173 73.2608 96.9131Z" fill="white"/>
<path d="M82.3945 130.483H73.2607C71.6229 130.483 70.2952 129.155 70.2952 127.517C70.2952 125.879 71.6229 124.552 73.2607 124.552H82.3945C83.4508 124.545 84.4239 123.978 84.9493 123.061C85.4747 122.145 85.473 121.018 84.9448 120.103L80.3779 112.215C79.559 110.79 80.0503 108.971 81.4752 108.152C82.9001 107.334 84.719 107.825 85.5379 109.25L90.0752 117.138C91.6623 119.887 91.6646 123.273 90.0812 126.024C88.4978 128.775 85.5686 130.474 82.3945 130.483Z" fill="white"/>
<path d="M52.7393 130.483H43.6055C40.4314 130.474 37.5022 128.775 35.9188 126.024C34.3355 123.273 34.3377 119.887 35.9248 117.138L40.4621 109.25C40.9918 108.328 41.9731 107.759 43.0362 107.757C44.0993 107.755 45.0828 108.32 45.6162 109.239C46.1496 110.159 46.1518 111.293 45.6221 112.215L41.0552 120.103C40.527 121.018 40.5253 122.145 41.0507 123.061C41.5761 123.978 42.5492 124.545 43.6055 124.552H52.7393C54.3771 124.552 55.7048 125.879 55.7048 127.517C55.7048 129.155 54.3771 130.483 52.7393 130.483Z" fill="white"/>
</svg>
