<svg width="125" height="172" viewBox="0 0 125 172" fill="none" xmlns="http://www.w3.org/2000/svg">
<path d="M5.93109 50.4138H8.8966L21.2332 8.51104C22.7202 3.46164 27.3569 -0.00385317 32.6207 3.21528e-06L91.9311 3.21528e-06C97.1839 0.00928896 101.805 3.47216 103.289 8.51104L115.655 50.4138H118.621C121.896 50.4138 124.552 53.0692 124.552 56.3448V59.3104C124.552 62.586 121.896 65.2414 118.621 65.2414L108.212 158.803C107.377 166.35 100.976 172.046 93.3842 172H31.1083C23.5161 172.046 17.1158 166.35 16.2807 158.803L5.93109 65.2414C2.65547 65.2414 5.19753e-05 62.586 5.19753e-05 59.3104V56.3448C5.19753e-05 53.0692 2.65547 50.4138 5.93109 50.4138V50.4138Z" fill="#EA4926"/>
<path d="M97.5654 30.96L93.206 16.1324C92.468 13.6018 90.1483 11.8621 87.5123 11.8621L37.0985 11.8621C34.4624 11.8621 32.1428 13.6018 31.4047 16.1324L27.0454 30.96C26.528 32.7323 26.8656 34.6444 27.9584 36.1325C29.0512 37.6206 30.7746 38.5149 32.6205 38.5517H91.9309C93.7873 38.5332 95.5279 37.6465 96.6343 36.1557C97.7407 34.665 98.0853 32.7422 97.5654 30.96V30.96Z" fill="#393F4A"/>
<path d="M5.93108 50.4138L118.621 50.4138C121.896 50.4138 124.552 53.0692 124.552 56.3449V59.3104C124.552 62.586 121.896 65.2414 118.621 65.2414H5.93108C2.65546 65.2414 4.57764e-05 62.586 4.57764e-05 59.3104V56.3449C4.57764e-05 53.0692 2.65546 50.4138 5.93108 50.4138Z" fill="#E8692D"/>
<path d="M77.1035 163.104H93.4732C96.4999 163.124 99.0562 160.861 99.4042 157.855L104.416 112.69C104.596 111.052 103.414 109.578 101.777 109.398C100.139 109.218 98.6651 110.4 98.4849 112.037L93.5028 157.173H77.1035C75.4657 157.173 74.138 158.5 74.138 160.138C74.138 161.776 75.4657 163.104 77.1035 163.104Z" fill="#E8692D"/>
<path d="M103.378 97.862C104.886 97.8729 106.163 96.7499 106.344 95.2524L108.33 77.4593C108.511 75.8215 107.329 74.3477 105.691 74.1676C104.053 73.9874 102.58 75.1691 102.399 76.8069L100.383 94.6C100.3 95.3873 100.536 96.175 101.037 96.7877C101.538 97.4004 102.264 97.7872 103.052 97.862H103.378Z" fill="#E8692D"/>
<path d="M52.0151 96.9131C53.0788 96.9173 54.0633 96.3515 54.5951 95.4303L59.6958 86.5338C60.2223 85.6047 61.2078 85.0304 62.2758 85.0304C63.3437 85.0304 64.3292 85.6047 64.8558 86.5338L69.9565 95.4303C70.4862 96.3521 71.4675 96.9212 72.5306 96.9233C73.5937 96.9254 74.5772 96.3602 75.1106 95.4405C75.644 94.5209 75.6462 93.3866 75.1165 92.4648L69.9861 83.5683C68.3984 80.8101 65.4583 79.1101 62.2758 79.1101C59.0933 79.1101 56.1532 80.8101 54.5654 83.5683L49.4351 92.4648C48.9043 93.3842 48.9054 94.5171 49.438 95.4355C49.9706 96.3538 50.9535 96.9173 52.0151 96.9131Z" fill="white"/>
<path d="M42.8811 130.483H52.015C53.6528 130.483 54.9805 129.155 54.9805 127.517C54.9805 125.879 53.6528 124.552 52.015 124.552H42.8811C41.8249 124.545 40.8517 123.978 40.3263 123.061C39.8009 122.145 39.8026 121.018 40.3308 120.103L44.8977 112.215C45.7166 110.79 45.2254 108.971 43.8005 108.152C42.3756 107.333 40.5566 107.825 39.7377 109.25L35.2005 117.138C33.6134 119.887 33.6111 123.273 35.1945 126.024C36.7778 128.775 39.707 130.474 42.8811 130.483V130.483Z" fill="white"/>
<path d="M72.5366 130.483H81.6703C84.8445 130.474 87.7737 128.775 89.357 126.024C90.9404 123.273 90.9381 119.887 89.351 117.138L84.8138 109.25C84.2841 108.328 83.3028 107.759 82.2397 107.757C81.1766 107.754 80.1931 108.32 79.6597 109.239C79.1263 110.159 79.1241 111.293 79.6538 112.215L84.2207 120.103C84.7489 121.018 84.7506 122.145 84.2252 123.061C83.6998 123.978 82.7266 124.545 81.6703 124.552H72.5366C70.8987 124.552 69.571 125.879 69.571 127.517C69.571 129.155 70.8987 130.483 72.5366 130.483Z" fill="white"/>
</svg>
